<?xml version="1.0" encoding="UTF-8"?>
<svg width="200px" height="60px" viewBox="0 0 200 60" version="1.1" xmlns="http://www.w3.org/2000/svg">
    <title>Trance Asia Computers Logo</title>
    <g id="Logo" stroke="none" stroke-width="1" fill="none" fill-rule="evenodd">
        <g id="Company-Logo" transform="translate(10.000000, 5.000000)">
            <rect id="Background" fill="#3B82F6" x="0" y="0" width="180" height="50" rx="8"></rect>
            <text id="Company-Name" font-family="Arial-BoldMT, Arial" font-size="18" font-weight="bold" fill="#FFFFFF">
                <tspan x="20" y="22">TRANCE ASIA</tspan>
                <tspan x="40" y="42">COMPUTERS</tspan>
            </text>
            <path d="M10,25 C10,20 15,15 20,15 C25,15 30,20 30,25 C30,30 25,35 20,35 C15,35 10,30 10,25 Z" id="Circle" stroke="#FFFFFF" stroke-width="2"></path>
            <path d="M160,25 C160,20 165,15 170,15 C175,15 180,20 180,25 C180,30 175,35 170,35 C165,35 160,30 160,25 Z" id="Circle-Copy" stroke="#FFFFFF" stroke-width="2"></path>
        </g>
    </g>
</svg>
